<?xml version="1.0" encoding="iso-8859-1"?>
<!-- Generator: Adobe Illustrator 19.0.0, SVG Export Plug-In . SVG Version: 6.00 Build 0)  -->
<svg xmlns="http://www.w3.org/2000/svg" xmlns:xlink="http://www.w3.org/1999/xlink" version="1.1" id="Layer_1" x="0px" y="0px" viewBox="0 0 404.479 404.479" style="enable-background:new 0 0 404.479 404.479;" xml:space="preserve" width="512" height="512">
<g>
	<path style="fill:#F7B239;" d="M353.643,323.979c8.32,0,15.07,6.74,15.07,15.06v18.37c0,21.85-17.72,39.57-39.58,39.57H75.343   c-21.86,0-39.57-17.72-39.57-39.57v-18.37c0-8.32,6.74-15.06,15.06-15.06h2.71h297.39H353.643z"/>
	<path style="fill:#E09B2D;" d="M127.106,357.409v-18.37c0-8.32,6.74-15.06,15.06-15.06H53.543h-2.71   c-8.32,0-15.06,6.74-15.06,15.06v18.37c0,21.85,17.71,39.57,39.57,39.57h91.333C144.816,396.979,127.106,379.259,127.106,357.409z"/>
	<path style="fill:#F7B239;" d="M368.713,106.059c0,8.32-6.75,15.06-15.07,15.06h-2.71H55.353h-4.52c-4.16,0-7.93-1.69-10.65-4.41   c-2.72-2.72-4.41-6.49-4.41-10.65c0-54.43,44.12-98.56,98.55-98.56h135.83c27.21,0,51.85,11.03,69.69,28.87   S368.713,78.849,368.713,106.059z"/>
	<path style="fill:#E09B2D;" d="M112.439,106.059c0-54.43,44.12-98.56,98.55-98.56h-76.667c-54.43,0-98.55,44.13-98.55,98.56   c0,4.16,1.69,7.93,4.41,10.65c2.72,2.72,6.49,4.41,10.65,4.41h4.52h72.147c-4.16,0-7.93-1.69-10.65-4.41   C114.129,113.989,112.439,110.219,112.439,106.059z"/>
	<polygon style="fill:#F95428;" points="350.933,222.549 350.933,257.559 315.113,257.559 232.663,257.559 55.353,257.559    55.353,222.549  "/>
	<polygon style="fill:#E54728;" points="82.933,222.549 82.933,257.559 79.59,257.559 71.897,257.559 55.353,257.559    55.353,222.549  "/>
	<polygon style="fill:#9AD14B;" points="350.933,121.119 350.933,156.129 185.433,156.129 102.983,156.129 55.353,156.129    55.353,121.119  "/>
	<polygon style="fill:#F4DE3B;" points="315.113,257.559 315.113,259.809 275.003,299.909 232.663,257.559  "/>
	<polygon style="fill:#8BB73D;" points="82.933,119.882 82.933,154.892 79.59,154.892 71.897,154.892 55.353,154.892    55.353,119.882  "/>
	<polygon style="fill:#F4DE3B;" points="185.433,156.129 185.433,158.379 145.333,198.479 102.983,156.129  "/>
	<path style="fill:#B27214;" d="M350.933,257.559c9.17,0,17.47,3.72,23.48,9.73c6.01,6.01,9.73,14.31,9.73,23.48   c0,18.34-14.87,33.21-33.21,33.21H53.543c-9.17,0-17.47-3.72-23.48-9.73c-6.01-6.01-9.73-14.31-9.73-23.48   c0-18.34,14.87-33.21,33.21-33.21h1.81h177.31l42.34,42.35l40.11-40.1v-2.25H350.933z"/>
	<path style="fill:#B27214;" d="M350.933,156.129c9.17,0,17.47,3.72,23.48,9.73c6.01,6.01,9.73,14.31,9.73,23.48   c0,18.34-14.87,33.21-33.21,33.21H55.353h-1.81c-9.17,0-17.47-3.72-23.48-9.73c-6.01-6.01-9.73-14.31-9.73-23.48   c0-18.34,14.87-33.21,33.21-33.21h1.81h47.63l42.35,42.35l40.1-40.1v-2.25H350.933z"/>
	<g>
		<path style="fill:#995E10;" d="M91.333,290.769c0-18.34,14.87-33.21,33.21-33.21h-69.19h-1.81c-18.34,0-33.21,14.87-33.21,33.21    c0,9.17,3.72,17.47,9.73,23.48s14.31,9.73,23.48,9.73h71c-9.17,0-17.47-3.72-23.48-9.73S91.333,299.939,91.333,290.769z"/>
	</g>
	<g>
		<path style="fill:#995E10;" d="M91.333,189.339c0-12.158,6.539-22.786,16.287-28.573l-4.637-4.637h-47.63h-1.81    c-18.34,0-33.21,14.87-33.21,33.21c0,9.17,3.72,17.47,9.73,23.48s14.31,9.73,23.48,9.73h1.81h69.19c-9.17,0-17.47-3.72-23.48-9.73    S91.333,198.509,91.333,189.339z"/>
	</g>
	<path style="fill:#FFFFFF;" d="M345.713,371.342c-4.142,0-7.5-3.358-7.5-7.5v-15.333c0-4.142,3.358-7.5,7.5-7.5s7.5,3.358,7.5,7.5   v15.333C353.213,367.984,349.855,371.342,345.713,371.342z"/>
	<path style="fill:#FFFFFF;" d="M344.818,101.919c-3.639,0-6.833-2.653-7.404-6.361c-2.197-14.29-8.815-27.3-19.138-37.623   c-3.036-3.036-6.353-5.789-9.858-8.184c-3.42-2.336-4.299-7.003-1.962-10.424c2.335-3.42,7.003-4.299,10.423-1.962   c4.273,2.919,8.312,6.271,12.004,9.964c12.595,12.595,20.672,28.484,23.358,45.95c0.629,4.094-2.179,7.923-6.273,8.553   C345.581,101.891,345.197,101.919,344.818,101.919z"/>
	<path style="fill:#FFFFFF;" d="M361.143,298.269c-4.142,0-7.5-3.358-7.5-7.5c0-0.923-0.434-1.55-0.797-1.914   c-0.363-0.363-0.99-0.796-1.913-0.796c-4.142,0-7.5-3.358-7.5-7.5s3.358-7.5,7.5-7.5c6.376,0,10.581,3.251,12.52,5.19   c1.939,1.94,5.19,6.144,5.19,12.52C368.643,294.911,365.285,298.269,361.143,298.269z"/>
	<path style="fill:#FFFFFF;" d="M361.143,196.839c-4.142,0-7.5-3.358-7.5-7.5c0-0.923-0.434-1.55-0.797-1.914   c-0.363-0.363-0.99-0.796-1.913-0.796c-4.142,0-7.5-3.358-7.5-7.5s3.358-7.5,7.5-7.5c6.378,0,10.583,3.252,12.521,5.191   c1.938,1.938,5.189,6.143,5.189,12.519C368.643,193.481,365.285,196.839,361.143,196.839z"/>
	<circle style="fill:#FFFFFF;" cx="295.464" cy="34.824" r="7.5"/>
	<g>
		<path style="fill:#333333;" d="M357.534,250.602v-21.097c19.319-3.162,34.111-19.965,34.111-40.165s-14.792-37.002-34.111-40.165    v-20.897c10.595-1.848,18.676-11.106,18.676-22.221C376.21,47.577,328.633,0,270.152,0H134.327    C75.846,0,28.269,47.577,28.269,106.058c0,11.115,8.082,20.373,18.676,22.221v20.897c-19.319,3.162-34.111,19.965-34.111,40.165    s14.792,37.003,34.111,40.165v21.097c-19.319,3.162-34.111,19.965-34.111,40.165c0,14.815,7.958,27.802,19.82,34.923    c-2.754,3.741-4.385,8.356-4.385,13.347v18.37c0,25.956,21.117,47.072,47.072,47.072h253.796    c25.956,0,47.072-21.116,47.072-47.072v-18.37c0-4.991-1.632-9.606-4.385-13.347c11.862-7.122,19.82-20.109,19.82-34.924    C391.645,270.567,376.853,253.764,357.534,250.602z M61.945,250.06v-20.012h280.588v20.012H61.945z M297.346,265.06    l-22.339,22.339l-22.339-22.339H297.346z M61.945,148.633v-20.012h280.588v20.012H61.945z M167.673,163.633l-22.34,22.339    l-22.339-22.339H167.673z M43.269,106.058C43.269,55.848,84.117,15,134.327,15h135.826c50.209,0,91.058,40.848,91.058,91.058    c0,4.17-3.393,7.563-7.563,7.563h-3.613H54.445h-3.613C46.662,113.621,43.269,110.228,43.269,106.058z M27.834,189.34    c0-14.175,11.532-25.707,25.707-25.707h0.904h47.336l38.249,38.249c1.464,1.465,3.384,2.197,5.303,2.197    c1.919,0,3.839-0.732,5.303-2.197l38.249-38.249h161.148h0.904c14.175,0,25.707,11.532,25.707,25.707    c0,14.175-11.532,25.707-25.707,25.707h-0.904H54.445h-0.904C39.367,215.047,27.834,203.515,27.834,189.34z M353.647,331.474    c4.17,0,7.563,3.393,7.563,7.563v18.37c0,17.685-14.388,32.072-32.072,32.072H75.341c-17.685,0-32.072-14.387-32.072-32.072    v-18.37c0-4.17,3.393-7.563,7.563-7.563h2.709h297.396H353.647z M350.938,316.474H53.542c-14.175,0-25.707-11.532-25.707-25.707    c0-14.175,11.532-25.707,25.707-25.707h0.904h177.009l38.249,38.249c1.406,1.406,3.314,2.197,5.303,2.197s3.897-0.79,5.303-2.197    l38.249-38.249h31.475h0.904c14.175,0,25.707,11.532,25.707,25.707C376.645,304.942,365.112,316.474,350.938,316.474z"/>
		<g>
			<circle style="fill:#333333;" cx="128.723" cy="38.118" r="7.5"/>
			<circle style="fill:#333333;" cx="275.763" cy="38.118" r="7.5"/>
			<circle style="fill:#333333;" cx="177.736" cy="38.118" r="7.5"/>
			<circle style="fill:#333333;" cx="226.749" cy="38.118" r="7.5"/>
		</g>
	</g>
</g>















</svg>
